PathFileType	4	(X/Y/Z)	C:\Users\WrightLab\Desktop\Jo\P3_25.trc
DataRate	CameraRate	NumFrames	NumMarkers	Units	OrigDataRate	OrigDataStartFrame	OrigNumFrames
100.00	100.00	       17	19	mm	100.00	216	       575
Frame#	Time	Headset_Front			Headset_Back			Headset_Left			Headset_Right			Left_Shoulder			Right_Shoulder			Sternum			C7			Left Elbow			Right Elbow			Left Wrist			Right Wrist			Left ASIS			Right ASIS			S2			Left Knee			Right Knee			Left Ankle			Right Ankle			
		X1	Y1	Z1	X2	Y2	Z2	X3	Y3	Z3	X4	Y4	Z4	X5	Y5	Z5	X6	Y6	Z6	X7	Y7	Z7	X8	Y8	Z8	X9	Y9	Z9	X10	Y10	Z10	X11	Y11	Z11	X12	Y12	Z12	X13	Y13	Z13	X14	Y14	Z14	X15	Y15	Z15	X16	Y16	Z16	X17	Y17	Z17	X18	Y18	Z18	X19	Y19	Z19	

216	2.150	-174.24815	1504.71802	580.08826	-278.46713	1620.11780	320.94299	-134.68265	1572.66199	386.28387	-310.20123	1537.80530	523.57971	-104.25663	1338.29834	267.57986	-420.52859	1357.87524	441.02173	-196.16589	1230.08325	468.46686	-289.47150	1400.13123	313.41714	-55.04404	1004.48517	219.13348	-508.70050	1015.14960	464.94443	-23.98506	818.33429	308.10370	-435.65454	830.62170	577.32788	-131.24988	869.42004	395.76193	-349.98843	868.46271	522.53998	-346.05728	946.32910	275.32526	-133.90933	455.31207	379.23962	-330.75620	438.08707	547.69824	-167.79637	124.05950	368.59781	-474.77695	249.41827	306.16229	
217	2.160	-171.16751	1505.83716	589.41553	-272.66125	1620.69250	329.27924	-129.64911	1573.50989	394.98294	-306.50815	1538.28015	531.56165	-98.03714	1339.28857	276.64929	-415.85336	1358.55273	448.07849	-191.26219	1230.60168	476.41733	-283.54651	1400.99634	321.25482	-46.37983	1005.94287	229.22351	-504.23438	1015.71814	470.78928	-15.16116	820.41223	318.77295	-430.97476	832.39331	585.82825	-126.94633	870.06744	403.35617	-344.74329	869.71320	528.69867	-341.20929	947.75586	282.13055	-132.27512	455.19336	382.97897	-319.65756	441.78793	563.55713	-167.70276	124.56393	370.05676	-460.77380	247.55070	324.74728	
218	2.170	-167.13954	1506.04822	598.26770				-124.04871	1573.54724	407.14688	-302.12970	1538.27209	539.27850	-92.76549	1340.19312	286.19113	-411.21198	1359.11951	455.15195	-186.54411	1230.53394	484.52332	-278.16489	1401.94788	328.98505	-37.91612	1007.30713	239.54515	-499.78949	1016.18420	476.46927	-6.34310	821.39795	328.93826	-426.74768	833.75250	593.10193	-121.88583	871.50867	410.97034	-340.84558	871.61603	535.88501	-336.20041	948.64166	288.97867	-130.48450	454.99670	386.35150	-308.97418	446.76874	579.44623	-167.47121	124.13094	371.27881	-446.82611	244.86710	344.24402	
219	2.180	-163.95003	1506.26392	607.58026				-118.95174	1573.93555	416.91031	-298.68665	1538.77649	547.29016	-86.87003	1340.96204	295.14951	-406.63467	1359.23572	461.98367	-182.98938	1231.05774	492.63364	-272.91272	1402.63025	336.51651	-29.69959	1008.38519	249.10965	-495.55704	1016.62878	482.35880	1.67628	823.12073	339.99197	-423.19907	834.50500	599.38556	-117.78029	871.30206	418.81668	-336.44977	873.07922	542.39014	-331.67203	949.46552	295.44681	-128.27193	454.52524	390.23029	-299.23746	450.68741	594.32019	-167.23540	123.89644	372.96082	-431.15503	241.07487	363.15112	
220	2.190	-160.39659	1506.53894	616.73474				-113.97877	1574.80249	424.24783	-294.04034	1538.57849	554.96472	-80.87008	1341.33325	304.20370	-402.39188	1359.73511	468.53137	-178.82736	1231.30994	500.65799	-267.37897	1403.24316	344.41132	-22.01645	1009.80939	259.59213	-491.39453	1016.77679	488.29913	9.47261	824.24194	350.36359	-419.73340	835.89398	607.18695	-113.55093	872.21045	425.82300	-332.07861	874.70673	549.22034	-326.37433	949.76294	302.56711	-126.61591	454.49149	394.26865	-288.75522	454.49332	608.58478	-166.76706	124.19772	373.56543	-416.94376	236.26608	383.18744	
221	2.200	-156.74910	1506.38074	625.78632				-108.99491	1574.49817	435.98215	-290.55579	1538.45935	563.40491	-75.58595	1342.22839	312.71167	-397.92236	1360.22705	475.31677	-175.01997	1231.16125	508.43924	-262.21518	1403.53699	351.93997	-13.98510	1010.79993	269.96576	-487.24771	1017.34290	493.74423	17.91396	825.96436	361.79767	-416.08032	837.04742	614.69116	-108.20525	872.10571	432.71368	-327.46277	875.76178	555.88629	-321.75516	950.28284	309.48489	-125.15584	454.13815	397.93982	-279.34738	458.87927	622.39868	-166.67276	124.14326	374.89142	-403.11292	231.74329	403.17731	
222	2.210	-154.08815	1507.04028	635.15826				-104.21423	1574.91162	445.51007	-286.46167	1538.15466	571.48181	-70.53362	1342.81201	321.84833	-393.79858	1360.18677	482.09857	-170.69241	1231.58057	516.17285	-257.28458	1404.05920	359.62897	-5.81875	1011.54132	279.61539	-483.34467	1017.19452	499.42111	25.61453	827.06421	372.73584	-412.84982	838.35840	621.99768	-104.49059	872.77850	440.23477	-321.82547	876.63635	561.27667	-316.80368	950.47235	316.23352	-123.29912	455.15808	401.26920	-270.28259	462.87094	635.56390	-166.60808	124.28949	375.69528	-387.03668	224.89282	424.05026	
223	2.220	-151.44923	1506.60254	644.59015				-99.64847	1575.23145	452.50934	-282.94028	1537.85242	579.36761	-65.42858	1343.41748	331.01529	-389.56778	1360.01440	488.77975	-166.69904	1231.54114	523.93774	-252.31285	1404.64880	367.35406	1.65459	1012.88531	289.62698	-479.48523	1017.52734	504.89203	33.85892	828.29236	383.19879	-409.56195	838.44373	629.23590	-98.98342	872.38354	447.21835	-318.23273	878.19946	569.20728	-311.77722	950.64429	323.49008	-122.03748	454.29791	404.63809	-261.87772	467.06149	649.16992	-166.71152	124.68909	376.65668	-373.63150	219.81792	445.94937	
224	2.230	-148.40782	1506.12805	653.76068				-95.15643	1574.98157	464.37457	-279.48160	1537.73755	587.51135	-60.01638	1343.93408	340.20157	-385.42126	1360.61292	495.44876	-162.22417	1231.66699	531.82916	-247.11511	1404.84033	375.65475	9.11362	1013.54474	299.70691	-475.57983	1017.22937	511.12326	41.68938	829.95428	394.23947	-406.30478	839.38879	636.68231	-94.76048	872.39484	454.82977	-314.19376	879.01563	576.37256	-306.70673	950.31836	330.32455	-119.88544	453.75629	408.36514	-253.78630	471.09402	661.81885	-166.25005	124.97232	377.36923	-357.79556	213.22636	467.64651	
225	2.240	-144.75874	1505.67383	662.53339				-90.61045	1575.24768	471.83142	-276.00439	1537.36328	595.80237	-55.36931	1344.41064	348.12595	-381.49463	1360.31042	502.02332	-158.91013	1231.93652	540.07568	-242.34796	1405.20044	383.02203	16.31482	1014.41962	309.97226	-471.53531	1017.19427	516.70160	49.05031	831.31744	405.25464	-403.20163	840.35065	644.64117	-90.05542	872.43146	462.88315	-309.58386	879.69025	583.43243	-301.77252	950.46686	337.43619	-118.03095	453.63821	410.93036	-246.00848	474.88821	674.78906	-166.05141	125.17953	378.00272	-341.65527	205.22957	489.74805	
226	2.250	-142.38095	1504.80530	671.93909				-85.98891	1574.42957	484.69308	-273.08841	1537.00061	603.69012	-50.19140	1344.53918	357.32343	-377.04984	1360.12622	508.92682	-154.74043	1231.69006	548.14630	-237.67564	1405.15771	390.60690	23.34965	1015.09186	319.77133	-467.59143	1017.19043	522.40533	57.76030	832.78217	416.39618	-400.33807	840.34741	650.91620	-84.89254	871.88397	470.99576	-305.40143	880.45728	590.34241	-296.62296	950.48615	344.35858	-116.94495	453.32458	414.57339	-238.63818	478.26575	686.38391	-165.89026	125.26649	378.61420	-326.65588	198.64703	512.96637	
227	2.260	-139.08783	1503.89600	680.78412				-82.01245	1574.86108	492.15045	-269.06516	1536.69507	611.88171	-45.15485	1344.81079	366.27637	-373.23932	1359.84973	515.80597	-151.25276	1231.81531	556.39612	-232.67747	1405.30786	398.85861	30.57212	1015.47296	329.48669	-463.71176	1016.56512	528.60455	65.20924	833.85736	427.67996	-397.57095	841.00928	658.85510	-80.20875	871.87860	478.93082	-301.06458	880.20007	597.87469	-291.90979	950.06171	351.96094	-115.60569	453.16516	418.49252	-231.54692	480.72235	697.34076	-165.29385	126.11951	378.34351	-310.89963	191.60062	536.90228	
228	2.270	-136.22362	1503.27466	689.67792				-77.31257	1573.99487	504.00610	-266.52530	1536.35925	620.04858	-40.45663	1344.92285	375.72845	-369.03360	1359.36841	523.04102	-147.06616	1231.60852	564.40582	-228.31606	1405.45105	406.29337	37.22208	1016.47339	339.67618	-459.54941	1016.21185	534.60730	72.39335	835.51471	438.30576	-394.48145	841.53290	666.77734	-76.56911	871.88843	487.07489	-296.57751	880.82544	603.78070	-286.67090	950.26715	358.99664	-113.74445	453.81320	421.24625	-225.51656	483.28998	708.36493	-165.02095	126.71051	379.65845	-294.56232	184.07968	559.01721	
229	2.280	-133.22461	1502.00330	698.64734				-73.88209	1574.28625	511.33215	-263.17035	1535.66199	627.81921	-35.51902	1345.24561	383.35788	-365.23883	1358.99146	529.91058	-143.07072	1231.79858	572.53809	-223.41853	1405.07617	414.77664	43.75093	1016.83002	349.61539	-455.68430	1015.72302	541.09955	79.51440	836.49170	450.05878	-391.29373	840.87402	673.24152	-72.92049	870.60626	495.08322	-293.39474	881.49243	613.20831	-281.73135	949.78461	366.28329	-111.68504	453.05392	424.93323	-219.20401	484.40042	718.44031	-164.29149	127.42326	379.16782	-278.00232	176.54556	583.01770	
230	2.290	-130.05013	1501.15100	707.35602				-69.43047	1573.66821	521.62476	-259.94809	1534.47534	636.13538	-30.59697	1345.46179	392.92841	-360.94455	1358.27551	537.17047	-139.25137	1231.06140	581.22864	-218.89508	1405.14709	422.94257	49.94802	1017.57111	359.76443	-451.29428	1015.09332	547.02417	86.61827	837.69794	461.25192	-388.34683	841.22345	681.05988	-68.38145	870.00537	503.68988	-289.52509	881.77930	620.85706	-276.38480	948.99445	372.42542	-110.47903	452.83286	428.79132	-214.16849	486.13364	727.28284	-164.15724	127.57478	379.55417	-262.26349	170.12601	607.00189	
231	2.300	-127.56416	1500.43152	716.38568				-66.06985	1573.59326	529.74469	-256.71423	1533.41211	644.47650	-26.20588	1345.19250	402.49377	-357.16321	1357.56470	544.11786	-135.48584	1230.43860	589.28577	-214.16162	1404.50354	431.47391	56.20953	1017.50842	369.18802	-447.12430	1014.57721	553.09259	93.63974	838.82037	471.99307	-385.26715	840.14679	687.39911	-65.45144	868.92499	511.73270	-285.67981	881.42761	628.76746	-271.85458	948.93542	380.09058	-108.75725	453.30536	432.13776	-209.42729	486.26614	736.55072	-164.43698	127.95132	380.49020	-245.32787	163.63580	631.15936	
232	2.310	-124.53851	1498.99365	725.24011				-61.45665	1572.37195	541.83972	-253.77686	1533.07764	652.59137	-21.39059	1345.13818	411.47760	-353.02167	1356.70422	551.84845	-130.89705	1230.16992	597.51263	-209.76878	1404.20740	439.13461	62.45335	1017.86365	379.38336	-443.15924	1013.36011	559.61700	100.36324	839.71515	483.07385	-382.34979	839.62189	694.93927	-60.66299	868.81781	520.62958	-282.67120	882.17108	636.55920	-266.67490	948.70294	387.90161	-106.68223	452.87585	436.22513	-205.43427	485.93787	745.16791	-164.00581	128.57530	381.44745	-228.48573	157.04752	656.21777	
